<!DOCTYPE svg PUBLIC "-//W3C//DTD SVG 1.1//EN" "http://www.w3.org/Graphics/SVG/1.1/DTD/svg11.dtd">
<!-- Uploaded to: SVG Repo, www.svgrepo.com, Transformed by: SVG Repo Mixer Tools -->
<svg height="800px" width="800px" version="1.1" id="_x34_" xmlns="http://www.w3.org/2000/svg" xmlns:xlink="http://www.w3.org/1999/xlink" viewBox="0 0 512.00 512.00" xml:space="preserve" fill="#000000" stroke="#000000" stroke-width="0.512">
<g id="SVGRepo_bgCarrier" stroke-width="0"/>
<g id="SVGRepo_tracerCarrier" stroke-linecap="round" stroke-linejoin="round"/>
<g id="SVGRepo_iconCarrier"> <g> <path style="fill:#5b83b9;" d="M487.737,19.297H113.543c-17.255,0-34.411,16.543-38.308,36.906L23.67,312.826 c-3.762,19.655,6.895,35.553,23.794,35.553h192.351l98.472,76.126l-1.969-76.126h90.786c16.899,0,34.043-15.899,38.301-35.553 l45.583-256.624C515.398,35.84,504.993,19.297,487.737,19.297z"/> <g> <path style="fill:#FFFFFF;" d="M488.091,36.874L442.509,293.51c-4.284,19.665-21.421,35.538-38.278,35.538H23.912 c-16.505-0.421-26.83-16.153-23.177-35.538L52.357,36.874C56.22,16.505,73.357,0,90.634,0h374.631 c11.729,0.21,20.157,7.937,22.896,19.315c0.351,1.404,0.632,2.809,0.702,4.283C489.355,27.743,489.074,32.167,488.091,36.874z"/> <polygon style="fill:#FFFFFF;" points="154.376,280.717 312.162,280.717 315.382,405.186 "/> <g> <polygon style="fill:#5b83b9;" points="421.376,95.69 97.042,96.967 103.292,66.734 426.891,65.461 "/> <polygon style="fill:#5b83b9;" points="406.058,179.662 79.683,180.947 86.011,150.333 411.642,149.051 "/> <polygon style="fill:#5b83b9;" points="308.536,264.483 62.215,265.452 68.623,234.452 314.379,233.485 "/> </g> </g> <path style="opacity:0.04;fill:#040000;" d="M488.091,36.874L442.509,293.51c-4.284,19.665-21.421,35.538-38.278,35.538h-90.813 l1.966,76.135l-98.468-76.135h-98.82L447.144,0h18.121c11.729,0.21,20.157,7.937,22.896,19.315 c0.351,1.404,0.632,2.809,0.702,4.283C489.355,27.743,489.074,32.167,488.091,36.874z"/> </g> </g>
</svg>